<svg width="649" height="789" viewBox="0 0 649 789" fill="none" xmlns="http://www.w3.org/2000/svg">
<path d="M32.6293 753.854C26.3651 753.854 20.7827 752.767 15.8821 750.594C10.9815 748.378 7.10369 745.118 4.24858 740.814C1.43608 736.467 0.0298296 731.055 0.0298296 724.578C0.0298296 719.124 1.03125 714.543 3.03409 710.835C5.03693 707.128 7.7642 704.145 11.2159 701.886C14.6676 699.628 18.5881 697.923 22.9773 696.773C27.4091 695.622 32.054 694.812 36.9119 694.344C42.6222 693.747 47.2244 693.193 50.7188 692.682C54.2131 692.128 56.7486 691.318 58.3253 690.253C59.902 689.187 60.6903 687.611 60.6903 685.523V685.139C60.6903 681.091 59.4119 677.959 56.8551 675.743C54.3409 673.527 50.7614 672.419 46.1165 672.419C41.2159 672.419 37.3168 673.506 34.419 675.679C31.5213 677.81 29.6037 680.494 28.6662 683.733L3.48153 681.688C4.75994 675.722 7.27415 670.565 11.0241 666.219C14.7741 661.83 19.6108 658.463 25.5341 656.119C31.5 653.733 38.4034 652.54 46.2443 652.54C51.6989 652.54 56.919 653.179 61.9048 654.457C66.9332 655.736 71.3864 657.717 75.2642 660.402C79.1847 663.087 82.2741 666.538 84.5327 670.757C86.7912 674.933 87.9205 679.94 87.9205 685.778V752H62.0966V738.385H61.3295C59.7528 741.453 57.6435 744.159 55.0014 746.503C52.3594 748.804 49.1847 750.615 45.4773 751.936C41.7699 753.214 37.4872 753.854 32.6293 753.854ZM40.4276 735.061C44.4332 735.061 47.9702 734.273 51.0384 732.696C54.1065 731.077 56.5142 728.903 58.2614 726.176C60.0085 723.449 60.8821 720.359 60.8821 716.908V706.489C60.0298 707.043 58.858 707.554 57.3665 708.023C55.9176 708.449 54.277 708.854 52.4446 709.237C50.6122 709.578 48.7798 709.898 46.9474 710.196C45.1151 710.452 43.4531 710.686 41.9616 710.899C38.7656 711.368 35.9744 712.114 33.5881 713.136C31.2017 714.159 29.348 715.544 28.027 717.291C26.706 718.996 26.0455 721.126 26.0455 723.683C26.0455 727.391 27.3878 730.224 30.0724 732.185C32.7997 734.102 36.2514 735.061 40.4276 735.061ZM109.558 752V621.091H136.788V670.31H137.619C138.812 667.668 140.538 664.983 142.796 662.256C145.097 659.486 148.08 657.185 151.745 655.352C155.452 653.477 160.055 652.54 165.552 652.54C172.711 652.54 179.316 654.415 185.367 658.165C191.418 661.872 196.255 667.476 199.877 674.976C203.499 682.433 205.31 691.787 205.31 703.037C205.31 713.989 203.542 723.236 200.005 730.778C196.511 738.278 191.738 743.967 185.687 747.845C179.678 751.68 172.945 753.598 165.488 753.598C160.204 753.598 155.708 752.724 152.001 750.977C148.336 749.23 145.332 747.036 142.988 744.393C140.644 741.709 138.854 739.003 137.619 736.276H136.404V752H109.558ZM136.212 702.909C136.212 708.747 137.022 713.839 138.641 718.186C140.261 722.533 142.604 725.92 145.673 728.349C148.741 730.736 152.469 731.929 156.859 731.929C161.29 731.929 165.04 730.714 168.109 728.286C171.177 725.814 173.499 722.405 175.076 718.058C176.695 713.669 177.505 708.619 177.505 702.909C177.505 697.241 176.717 692.256 175.14 687.952C173.563 683.648 171.241 680.281 168.173 677.852C165.104 675.423 161.333 674.209 156.859 674.209C152.427 674.209 148.677 675.381 145.609 677.724C142.583 680.068 140.261 683.392 138.641 687.696C137.022 692 136.212 697.071 136.212 702.909ZM223.48 752V653.818H250.71V752H223.48ZM237.159 641.162C233.11 641.162 229.637 639.82 226.74 637.135C223.885 634.408 222.457 631.148 222.457 627.355C222.457 623.605 223.885 620.388 226.74 617.703C229.637 614.976 233.11 613.612 237.159 613.612C241.207 613.612 244.659 614.976 247.514 617.703C250.412 620.388 251.86 623.605 251.86 627.355C251.86 631.148 250.412 634.408 247.514 637.135C244.659 639.82 241.207 641.162 237.159 641.162ZM272.523 788.818V653.818H299.369V670.31H300.584C301.777 667.668 303.503 664.983 305.761 662.256C308.063 659.486 311.045 657.185 314.71 655.352C318.418 653.477 323.02 652.54 328.517 652.54C335.676 652.54 342.281 654.415 348.332 658.165C354.384 661.872 359.22 667.476 362.842 674.976C366.464 682.433 368.276 691.787 368.276 703.037C368.276 713.989 366.507 723.236 362.97 730.778C359.476 738.278 354.703 743.967 348.652 747.845C342.643 751.68 335.911 753.598 328.453 753.598C323.169 753.598 318.673 752.724 314.966 750.977C311.301 749.23 308.297 747.036 305.953 744.393C303.609 741.709 301.82 739.003 300.584 736.276H299.753V788.818H272.523ZM299.178 702.909C299.178 708.747 299.987 713.839 301.607 718.186C303.226 722.533 305.57 725.92 308.638 728.349C311.706 730.736 315.435 731.929 319.824 731.929C324.256 731.929 328.006 730.714 331.074 728.286C334.142 725.814 336.464 722.405 338.041 718.058C339.661 713.669 340.47 708.619 340.47 702.909C340.47 697.241 339.682 692.256 338.105 687.952C336.528 683.648 334.206 680.281 331.138 677.852C328.07 675.423 324.298 674.209 319.824 674.209C315.392 674.209 311.642 675.381 308.574 677.724C305.548 680.068 303.226 683.392 301.607 687.696C299.987 692 299.178 697.071 299.178 702.909ZM386.429 752V653.818H413.659V752H386.429ZM400.108 641.162C396.06 641.162 392.587 639.82 389.689 637.135C386.834 634.408 385.406 631.148 385.406 627.355C385.406 623.605 386.834 620.388 389.689 617.703C392.587 614.976 396.06 613.612 400.108 613.612C404.156 613.612 407.608 614.976 410.463 617.703C413.361 620.388 414.81 623.605 414.81 627.355C414.81 631.148 413.361 634.408 410.463 637.135C407.608 639.82 404.156 641.162 400.108 641.162ZM462.702 621.091V752H435.472V621.091H462.702ZM528.876 753.918C518.947 753.918 510.36 751.808 503.116 747.589C495.914 743.328 490.353 737.405 486.433 729.82C482.512 722.192 480.552 713.349 480.552 703.293C480.552 693.151 482.512 684.287 486.433 676.702C490.353 669.074 495.914 663.151 503.116 658.932C510.36 654.67 518.947 652.54 528.876 652.54C538.805 652.54 547.37 654.67 554.572 658.932C561.816 663.151 567.398 669.074 571.319 676.702C575.239 684.287 577.2 693.151 577.2 703.293C577.2 713.349 575.239 722.192 571.319 729.82C567.398 737.405 561.816 743.328 554.572 747.589C547.37 751.808 538.805 753.918 528.876 753.918ZM529.004 732.824C533.521 732.824 537.292 731.545 540.317 728.989C543.343 726.389 545.623 722.852 547.157 718.378C548.734 713.903 549.522 708.811 549.522 703.101C549.522 697.391 548.734 692.298 547.157 687.824C545.623 683.349 543.343 679.812 540.317 677.213C537.292 674.614 533.521 673.314 529.004 673.314C524.444 673.314 520.609 674.614 517.498 677.213C514.43 679.812 512.107 683.349 510.531 687.824C508.996 692.298 508.229 697.391 508.229 703.101C508.229 708.811 508.996 713.903 510.531 718.378C512.107 722.852 514.43 726.389 517.498 728.989C520.609 731.545 524.444 732.824 529.004 732.824ZM647.129 653.818V674.273H588.002V653.818H647.129ZM601.425 630.295H628.656V721.83C628.656 724.344 629.039 726.304 629.806 727.71C630.573 729.074 631.638 730.033 633.002 730.587C634.408 731.141 636.028 731.418 637.86 731.418C639.138 731.418 640.417 731.311 641.695 731.098C642.974 730.842 643.954 730.651 644.636 730.523L648.918 750.786C647.555 751.212 645.637 751.702 643.165 752.256C640.694 752.852 637.69 753.214 634.153 753.342C627.59 753.598 621.837 752.724 616.894 750.722C611.994 748.719 608.18 745.608 605.452 741.389C602.725 737.17 601.383 731.844 601.425 725.409V630.295Z" fill="#73B0C4"/>
<path d="M193 50.5001C193 50.5001 221.501 7.06541 325.001 5.53162C428.5 3.99782 453.5 49.4985 453.5 49.4985" stroke="#73B0C4" stroke-width="10" stroke-linecap="round"/>
<path d="M344 133.5C344 144.054 335.041 153 323.5 153C311.959 153 303 144.054 303 133.5C303 122.946 311.959 114 323.5 114C335.041 114 344 122.946 344 133.5Z" stroke="#73B0C4" stroke-width="12"/>
<path d="M451 115V128C451 128 375.924 86.1 323.5 86C270.459 85.8988 194.5 128.5 194.5 128.5V114.5C194.5 114.5 257 71 323.5 71C386.5 71 451 115 451 115Z" fill="#73B0C4"/>
<path d="M257.482 149.998C287.745 150.543 302.482 170.014 302.482 170.014C302.482 170.014 209.798 144.5 218.482 201.514C221.705 222.672 229 238.22 257.482 240.014C259.5 240.142 284 239 295.482 220.514C310 191.5 323 196 323 196C323 196 335 192.5 349.982 220.514C354 225 354.5 236 387.482 240.014C425.192 236 425.482 201.514 425.482 201.514C425.482 201.514 440.982 151.014 342.482 170.014C346.5 166.5 354.5 149 387.482 151.014C387.482 151.014 440.535 144.5 440.982 194.014C441 196 437.5 228.5 425.482 234.514C412 334.5 320.482 329.515 320.482 329.515C320.482 329.515 242 337.5 218.482 234.514C213.5 228 203.482 218 204.482 194.014C204.587 191.502 200.982 148.982 257.482 149.998Z" fill="#73B0C4"/>
<path d="M239.5 345.501L266.5 410.001L312 361.501C312 361.501 285.5 361.5 248 331.501C243.562 336.107 239.5 345.501 239.5 345.501Z" fill="#73B0C4"/>
<path d="M405.5 346L378.5 410.5L333 362C333 362 359.5 361.999 397 332C401.438 336.606 405.5 346 405.5 346Z" fill="#73B0C4"/>
<path d="M273 424.5L290.5 457L304.5 419L292.5 403L273 424.5Z" fill="#73B0C4"/>
<path d="M371.5 424.5L354 457L340 419L352 403L371.5 424.5Z" fill="#73B0C4"/>
<path d="M372.5 523C372.5 523 370 529 375 531.5C380 534 428.5 515.5 428.5 515.5V545.5L412.5 562C412.5 562 409 569 416 569C426.5 565.5 439 562 439 562L463 569C469.5 569 466.5 562 466.5 562L448.5 545.5V515.5C448.5 515.5 495.5 531.5 500.5 531.5C506.5 530 503 523 503 523L448.5 481.5V448C448.5 430.5 439 430.5 439 430.5C439 430.5 428.5 431.5 428.5 448V481.5L372.5 523Z" fill="#73B0C4"/>
</svg>